HIERARCHY
ROOT Hips
{
	OFFSET 0.000000 0.000000 0.000000 
	CHANNELS 6 Xposition Yposition Zposition Yrotation Zrotation Xrotation 
	JOINT Lumbar
	{
		OFFSET 0.000000 0.000000 0.000000 
		CHANNELS 3 Zrotation Xrotation Yrotation
		JOINT Neck
		{
			OFFSET 0.000000 0.445665 0.000000 
			CHANNELS 3 Zrotation Xrotation Yrotation
			End Site
			{
				OFFSET 0.000000 0.227535 0.000000 
			}
		}
		JOINT RightShoulder
		{
			OFFSET 0.019635 0.377685 0.194865 
			CHANNELS 3 Zrotation Xrotation Yrotation
			JOINT RightElbow
			{
				OFFSET 0.000000 -0.243375 0.000000 
				CHANNELS 2 Zrotation Yrotation
				JOINT RightWrist
				{
					OFFSET 0.000000 -0.264825 0.000000 
					CHANNELS 2 Zrotation Xrotation
					End Site
					{
						OFFSET 0.006600 -0.176220 0.000990 
					}
				}
			}
		}
		JOINT LeftShoulder
		{
			OFFSET 0.019635 0.377685 -0.194865 
			CHANNELS 3 Zrotation Xrotation Yrotation
			JOINT LeftElbow
			{
				OFFSET 0.000000 -0.243375 0.000000 
				CHANNELS 2 Zrotation Yrotation
				JOINT LeftWrist
				{
					OFFSET 0.000000 -0.264825 0.000000 
					CHANNELS 2 Zrotation Xrotation
					End Site
					{
						OFFSET 0.006600 -0.176220 -0.000990 
					}
				}
			}
		}
	}
	JOINT RightHip
	{
		OFFSET 0.052140 -0.069960 0.075570 
		CHANNELS 3 Zrotation Xrotation Yrotation
		JOINT RightKnee
		{
			OFFSET 0.000000 -0.402270 0.000000 
			CHANNELS 1 Zrotation
			JOINT RightAnkle
			{
				OFFSET 0.000000 -0.404085 0.000000 
				CHANNELS 3 Zrotation Xrotation Yrotation
				End Site
				{
					OFFSET 0.204105 -0.089430 0.008415 
				}
			}
		}
	}
	JOINT LeftHip
	{
		OFFSET 0.052140 -0.069960 -0.075570 
		CHANNELS 3 Zrotation Xrotation Yrotation
		JOINT LeftKnee
		{
			OFFSET 0.000000 -0.402270 0.000000 
			CHANNELS 1 Zrotation
			JOINT LeftAnkle
			{
				OFFSET 0.000000 -0.404085 0.000000 
				CHANNELS 3 Zrotation Xrotation Yrotation
				End Site
				{
					OFFSET 0.204105 -0.089430 -0.008415 
				}
			}
		}
	}
}
MOTION
Frames: 11
Frame Time: 0.02
-0.00352 -0.00108 -0.00144 176.92105 -45.43802 2.19772 57.20426 -0.87506 1.54741 -4.78839 -1.50253 -0.14447 142.14067 -80.79857 -71.30818 10.80988 80.48335 -1.34707 -5.9828 160.05718 75.97977 72.13203 10.10002 -78.27578 -1.36462 10.41504 46.39163 -0.52776 -5.73249 -18.53337 -7.62898 -5.21345 -3.47933 52.7002 0.76255 3.81168 -24.30407 -8.52858 5.3271 3.58189
-0.00227 -0.00077 -0.00142 176.84827 -45.43426 2.17064 57.11952 -0.83133 1.59399 -4.80696 -1.4917 -0.14493 141.76567 -80.79104 -71.82404 10.82279 80.47353 -1.2994 -5.96688 159.79147 76.02025 72.59043 10.07553 -78.25464 -1.313 10.3775 46.49703 -0.56741 -5.9682 -18.57739 -7.62807 -5.18906 -3.46442 52.77042 0.85503 4.12306 -24.29957 -8.53145 5.30972 3.57089
-0.00103 -0.00047 -0.0014 176.77559 -45.43045 2.14358 57.03487 -0.7877 1.64051 -4.82566 -1.48088 -0.14542 141.39068 -80.7835 -72.33962 10.83562 80.46374 -1.25182 -5.95096 159.52549 76.06061 73.04924 10.05082 -78.23345 -1.26141 10.33984 46.60225 -0.60701 -6.20353 -18.62135 -7.62716 -5.16471 -3.44953 52.84052 0.94731 4.43386 -24.29507 -8.53431 5.29235 3.55991
0.00021 -0.00016 -0.00139 176.70301 -45.4267 2.11658 56.95036 -0.7441 1.68696 -4.84419 -1.47008 -0.14588 141.0167 -80.77598 -72.85405 10.8485 80.45396 -1.2043 -5.93511 159.26051 76.10095 73.50652 10.02638 -78.21238 -1.2099 10.30241 46.70733 -0.64655 -6.43859 -18.66524 -7.62625 -5.14039 -3.43466 52.91054 1.03952 4.74435 -24.29058 -8.53717 5.27502 3.54895
0.00145 0.00015 -0.00137 176.6304 -45.42301 2.08956 56.86583 -0.70041 1.73342 -4.86254 -1.45928 -0.14631 140.643 -80.7685 -73.36838 10.86146 80.44414 -1.15669 -5.91923 158.99597 76.14143 73.96272 10.00219 -78.19135 -1.15847 10.2651 46.81256 -0.68609 -6.67386 -18.70918 -7.62536 -5.11606 -3.41977 52.98064 1.13189 5.05527 -24.28608 -8.54004 5.25768 3.53797
0.0027 0.00046 -0.00135 176.55755 -45.41894 2.06243 56.78092 -0.65691 1.78009 -4.88199 -1.44841 -0.14692 140.26522 -80.76084 -73.88662 10.87401 80.43439 -1.10917 -5.9032 158.72685 76.18154 74.42697 9.97636 -78.16982 -1.10659 10.22667 46.91778 -0.72581 -6.90925 -18.75317 -7.6244 -5.09165 -3.40487 53.05071 1.22397 5.3658 -24.2816 -8.5429 5.24026 3.52699
0.00393 0.00076 -0.00134 176.48526 -45.41568 2.03556 56.69689 -0.61308 1.82629 -4.89915 -1.4377 -0.14717 139.89648 -80.7535 -74.3961 10.88743 80.42455 -1.06158 -5.88761 158.46788 76.22232 74.8745 9.95402 -78.14942 -1.0555 10.19073 47.02283 -0.76515 -7.14427 -18.79697 -7.62356 -5.06743 -3.39001 53.12077 1.31654 5.67676 -24.27709 -8.54576 5.22302 3.51604
0.00517 0.00107 -0.00132 176.41247 -45.41162 2.00844 56.61197 -0.56957 1.87291 -4.91853 -1.42683 -0.14776 139.51863 -80.74597 -74.91423 10.89991 80.41473 -1.01395 -5.8714 158.19836 76.26253 75.33747 9.92819 -78.12779 -1.00397 10.15215 47.12813 -0.80481 -7.3794 -18.84105 -7.62264 -5.04305 -3.37513 53.19087 1.40865 5.98734 -24.27261 -8.54862 5.20561 3.50505
0.00644 0.00138 -0.00128 176.33894 -45.40675 1.98105 56.52623 -0.52635 1.92012 -4.94022 -1.41581 -0.14874 139.13237 -80.73776 -75.44113 10.91179 80.40518 -0.96666 -5.85527 157.92036 76.30185 75.81973 9.89912 -78.10537 -0.95075 10.11168 47.23345 -0.84499 -7.61576 -18.88509 -7.62152 -5.01836 -3.36015 53.26095 1.50028 6.29758 -24.26815 -8.5515 5.18798 3.49401
0.0076 0.00169 -0.00132 176.2693 -45.40707 1.95532 56.44603 -0.48115 1.9642 -4.9474 -1.4058 -0.14737 138.80264 -80.7321 -75.91219 10.9288 80.39481 -0.91856 -5.84119 157.70441 76.3457 76.19232 9.89175 -78.08965 -0.90377 10.08606 47.33783 -0.88259 -7.84833 -18.92821 -7.62123 -4.9951 -3.34552 53.33092 1.59492 6.6102 -24.2635 -8.55431 5.1716 3.48326
0.00898 0.00199 -0.00121 176.19169 -45.39609 1.92601 56.35364 -0.44036 2.01467 -4.98596 -1.39354 -0.15102 138.34862 -80.72195 -76.50434 10.93391 80.38571 -0.87147 -5.82121 157.34922 76.38038 76.79521 9.83667 -78.05846 -0.84588 10.0266 47.4447 -0.92535 -8.08675 -18.97401 -7.61939 -4.96909 -3.33031 53.40123 1.68303 6.91745 -24.25932 -8.55725 5.1526 3.47192
